<?xml version="1.0" encoding="UTF-8"?>
<svg version="1.1" xmlns="http://www.w3.org/2000/svg" width="512" height="512">
<path d="M0 0 C0.7178297 -0.00350607 1.43565939 -0.00701215 2.1752415 -0.01062447 C4.56914279 -0.01989305 6.96279837 -0.01502699 9.35670948 -0.01015663 C11.09501668 -0.01389519 12.83332219 -0.01849753 14.57162505 -0.02388728 C19.33993577 -0.03610737 24.10817626 -0.03585797 28.87649906 -0.03349853 C34.02254208 -0.03309011 39.16856267 -0.04413193 44.31459522 -0.05361366 C54.39377349 -0.07021942 64.47292836 -0.07572303 74.55211916 -0.07683842 C82.74642418 -0.07778913 90.94072149 -0.0819006 99.13502407 -0.08823967 C122.37434616 -0.10585123 145.61364979 -0.11507872 168.85297861 -0.11357872 C170.73183886 -0.11345885 170.73183886 -0.11345885 172.64865589 -0.11333656 C173.90276128 -0.1132548 175.15686666 -0.11317304 176.44897524 -0.1130888 C196.77047533 -0.11227602 217.09190128 -0.13141205 237.41337993 -0.1596133 C258.28616031 -0.18835071 279.15890454 -0.2021531 300.0317052 -0.20042574 C311.7474193 -0.19976212 323.46305568 -0.2052423 335.17875195 -0.22678185 C345.15441566 -0.24500493 355.12996643 -0.24933169 365.1056396 -0.235763 C370.19282917 -0.22923899 375.27980213 -0.22909577 380.36697102 -0.2464695 C385.02991339 -0.26223024 389.69246793 -0.25930593 394.35540102 -0.24190123 C396.03640669 -0.23883794 397.71744152 -0.24243828 399.39841279 -0.25362138 C416.53214443 -0.35999949 431.56687175 3.48355987 444.33640003 15.56976891 C452.76931259 24.56690889 459.57140746 36.96815185 459.59562111 49.52609062 C459.60007895 50.59954027 459.6045368 51.67298991 459.60912973 52.77896833 C459.60885318 54.54683124 459.60885318 54.54683124 459.60857105 56.35040855 C459.61224774 57.60309359 459.61592443 58.85577863 459.61971253 60.14642382 C459.62972297 63.6259054 459.63344779 67.10536973 459.63610184 70.58486366 C459.64000782 74.33693994 459.64958606 78.0890026 459.6583147 81.84107018 C459.6780724 90.90442392 459.68814514 99.96777877 459.6970425 109.03114867 C459.70142715 113.30129109 459.70679356 117.57143227 459.71203136 121.84157372 C459.72904411 136.04060928 459.74353716 150.23964408 459.75078011 164.43868828 C459.75268995 168.12300683 459.75461028 171.80732538 459.75656605 175.49164391 C459.75704979 176.40734352 459.75753353 177.32304314 459.75803193 178.26649123 C459.76632802 193.09238053 459.79165761 207.91818902 459.82414673 222.74404305 C459.85724493 237.97227636 459.87523142 253.20046866 459.87842435 268.42873812 C459.88058705 276.97601805 459.88930041 285.52318021 459.91488552 294.07042503 C459.9366304 301.35152284 459.94462442 308.63247427 459.93491874 315.91360086 C459.93038475 319.62551817 459.93220711 323.33713372 459.95168018 327.04900932 C459.9726557 331.08230336 459.96229213 335.114933 459.94914722 339.14826012 C459.96011647 340.30898962 459.97108572 341.46971911 459.98238736 342.66562223 C459.86488178 357.65097767 454.05807182 370.06882508 443.91843128 380.89789391 C433.67249915 390.73659503 421.18749189 396.49873658 406.92280006 396.51453781 C406.20497037 396.51804389 405.48714067 396.52154996 404.74755856 396.52516228 C402.35365727 396.53443086 399.96000169 396.5295648 397.56609058 396.52469444 C395.82778339 396.528433 394.08947787 396.53303534 392.35117501 396.53842509 C387.5828643 396.55064518 382.8146238 396.55039578 378.04630101 396.54803634 C372.90025798 396.54762792 367.75423739 396.55866974 362.60820484 396.56815147 C352.52902658 396.58475723 342.44987171 396.59026084 332.37068091 396.59137623 C324.17637588 396.59232694 315.98207857 396.59643841 307.78777599 396.60277748 C284.5484539 396.62038904 261.30915027 396.62961653 238.06982145 396.62811653 C236.1909612 396.62799666 236.1909612 396.62799666 234.27414417 396.62787437 C233.02003879 396.62779261 231.7659334 396.62771085 230.47382482 396.62762661 C210.15232473 396.62681383 189.83089878 396.64594986 169.50942013 396.67415111 C148.63663976 396.70288853 127.76389553 396.71669091 106.89109486 396.71496356 C95.17538077 396.71429993 83.45974438 396.71978011 71.74404812 396.74131966 C61.7683844 396.75954274 51.79283363 396.7638695 41.81716046 396.75030081 C36.72997089 396.7437768 31.64299793 396.74363358 26.55582905 396.76100731 C21.89288668 396.77676805 17.23033213 396.77384374 12.56739905 396.75643905 C10.88639338 396.75337575 9.20535854 396.75697609 7.52438728 396.7681592 C-9.60934436 396.8745373 -24.64407169 393.03097795 -37.41359997 380.94476891 C-45.84651253 371.94762893 -52.64860739 359.54638596 -52.67282104 346.98844719 C-52.67727889 345.91499754 -52.68173673 344.8415479 -52.68632966 343.73556948 C-52.6861453 342.5569942 -52.68596094 341.37841893 -52.68577099 340.16412926 C-52.68944768 338.91144422 -52.69312436 337.65875918 -52.69691247 336.36811399 C-52.7069229 332.88863241 -52.71064773 329.40916809 -52.71330178 325.92967415 C-52.71720775 322.17759787 -52.72678599 318.42553521 -52.73551464 314.67346764 C-52.75527234 305.61011389 -52.76534508 296.54675904 -52.77424243 287.48338914 C-52.77862709 283.21324672 -52.78399349 278.94310554 -52.7892313 274.6729641 C-52.80624405 260.47392853 -52.8207371 246.27489373 -52.82798004 232.07584953 C-52.82988988 228.39153098 -52.83181022 224.70721243 -52.83376598 221.02289391 C-52.83424972 220.10719429 -52.83473346 219.19149467 -52.83523186 218.24804658 C-52.84352795 203.42215729 -52.86885754 188.59634879 -52.90134666 173.77049476 C-52.93444487 158.54226145 -52.95243136 143.31406916 -52.95562428 128.08579969 C-52.95778699 119.53851976 -52.96650035 110.9913576 -52.99208546 102.44411278 C-53.01383034 95.16301497 -53.02182436 87.88206354 -53.01211867 80.60093695 C-53.00758469 76.88901964 -53.00940705 73.17740409 -53.02888012 69.46552849 C-53.04985564 65.43223446 -53.03949207 61.39960481 -53.02634716 57.36627769 C-53.03731641 56.2055482 -53.04828565 55.0448187 -53.0595873 53.84891558 C-52.94208172 38.86356014 -47.13527175 26.44571274 -36.99563122 15.61664391 C-26.74969909 5.77794278 -14.26469183 0.01580123 0 0 Z M-23.07375622 36.98383141 C-26.35133892 41.16919941 -27.53596758 45.06181019 -28.53859997 50.25726891 C-22.59004474 55.73985397 -16.6429599 61.21448373 -10.53078747 66.51508141 C-8.17839362 68.57227289 -5.85825031 70.66323805 -3.53859997 72.75726891 C-0.55797276 75.44710321 2.43385236 78.12037255 5.46140003 80.75726891 C9.35652814 84.14979984 13.18922766 87.60921091 17.02390003 91.06976891 C19.15557484 92.9828104 21.30159113 94.87614503 23.46140003 96.75726891 C27.35652814 100.14979984 31.18922766 103.60921091 35.02390003 107.06976891 C37.15557484 108.9828104 39.30159113 110.87614503 41.46140003 112.75726891 C45.35652814 116.14979984 49.18922766 119.60921091 53.02390003 123.06976891 C55.15557484 124.9828104 57.30159113 126.87614503 59.46140003 128.75726891 C65.05119992 133.62870094 70.53674901 138.61622041 76.03952503 143.58539391 C80.46261405 147.57431467 84.90755008 151.53294798 89.39890003 155.44476891 C92.6351508 158.28874686 95.82548671 161.18339591 99.02390003 164.06976891 C101.15557484 165.9828104 103.30159113 167.87614503 105.46140003 169.75726891 C109.35652814 173.14979984 113.18922766 176.60921091 117.02390003 180.06976891 C119.15557484 181.9828104 121.30159113 183.87614503 123.46140003 185.75726891 C127.35652814 189.14979984 131.18922766 192.60921091 135.02390003 196.06976891 C137.15557484 197.9828104 139.30159113 199.87614503 141.46140003 201.75726891 C145.35652814 205.14979984 149.18922766 208.60921091 153.02390003 212.06976891 C155.15557484 213.9828104 157.30159113 215.87614503 159.46140003 217.75726891 C165.05119992 222.62870094 170.53674901 227.61622041 176.03952503 232.58539391 C180.45527985 236.5677004 184.87877323 240.53610509 189.38718128 244.41351891 C190.96120466 245.81265079 192.49333427 247.25908525 194.00436878 248.72601891 C194.87706409 249.56133141 195.74975941 250.39664391 196.64890003 251.25726891 C197.44682972 252.04101891 198.24475941 252.82476891 199.06686878 253.63226891 C201.30428287 255.4434758 201.30428287 255.4434758 203.80515003 255.42133141 C207.87119059 253.63944893 210.63565972 250.72011469 213.77390003 247.63226891 C215.11685824 246.34368278 216.46059952 245.05591224 217.80515003 243.76898766 C218.76034534 242.84738853 218.76034534 242.84738853 219.73483753 241.90717125 C222.27394865 239.48079781 224.91429277 237.18503807 227.57468128 234.89398766 C229.89798791 232.87853119 232.17888468 230.81878428 234.46140003 228.75726891 C237.44202724 226.0674346 240.43385236 223.39416527 243.46140003 220.75726891 C248.17841287 216.64645852 252.81778892 212.45059045 257.46140003 208.25726891 C262.74125579 203.48939916 268.03431809 198.74214672 273.39890003 194.06976891 C275.77104432 191.98515726 278.11696068 189.87298246 280.46140003 187.75726891 C284.07816348 184.49336042 287.72529612 181.26935941 291.39890003 178.06976891 C293.77104432 175.98515726 296.11696068 173.87298246 298.46140003 171.75726891 C302.07816348 168.49336042 305.72529612 165.26935941 309.39890003 162.06976891 C311.77104432 159.98515726 314.11696068 157.87298246 316.46140003 155.75726891 C320.07816348 152.49336042 323.72529612 149.26935941 327.39890003 146.06976891 C329.77104432 143.98515726 332.11696068 141.87298246 334.46140003 139.75726891 C337.44202724 137.0674346 340.43385236 134.39416527 343.46140003 131.75726891 C348.17841287 127.64645852 352.81778892 123.45059045 357.46140003 119.25726891 C362.74125579 114.48939916 368.03431809 109.74214672 373.39890003 105.06976891 C375.77104432 102.98515726 378.11696068 100.87298246 380.46140003 98.75726891 C384.07816348 95.49336042 387.72529612 92.26935941 391.39890003 89.06976891 C393.77104432 86.98515726 396.11696068 84.87298246 398.46140003 82.75726891 C402.07816348 79.49336042 405.72529612 76.26935941 409.39890003 73.06976891 C411.77104432 70.98515726 414.11696068 68.87298246 416.46140003 66.75726891 C422.69519763 61.13537782 428.98593096 55.59953089 435.46140003 50.25726891 C433.70595942 40.77385409 428.9440891 34.06979272 421.01218128 28.55414391 C410.44293454 22.4746433 397.31807432 22.63795929 385.46140003 24.25726891 C380.60019419 26.37719326 377.89563397 29.29254354 374.46140003 33.25726891 C372.83548026 34.81338265 371.1716086 36.32008221 369.49973011 37.82660484 C367.79746545 39.36102702 366.11920544 40.9180661 364.44577503 42.48383141 C359.82786242 46.78832404 355.05378397 50.90039296 350.25046253 54.99555016 C343.70484572 60.58045824 337.24100496 66.22280851 330.89499378 72.03461266 C326.42433503 76.11776648 321.84998114 80.07569269 317.24265003 84.00336266 C310.69888861 89.58483277 304.23831036 95.22527628 297.89499378 101.03461266 C293.43650726 105.10664931 288.87642275 109.05569009 284.27780628 112.96820641 C278.52168358 117.87076873 272.81363359 122.79780819 267.27390003 127.94476891 C263.62726628 131.33251264 259.90522602 134.57624687 256.02390003 137.69476891 C250.6023166 142.05867349 245.53297886 146.74148421 240.44577503 151.48383141 C235.82786242 155.78832404 231.05378397 159.90039296 226.25046253 163.99555016 C225.04974812 165.02006291 223.84923274 166.04480896 222.64890003 167.06976891 C222.05069447 167.58055992 221.4524889 168.09135094 220.83615589 168.61762047 C215.27322109 173.38520656 209.84639298 178.28988765 204.46140003 183.25726891 C200.53776541 181.64110512 197.74766692 178.94377415 194.71140003 176.06976891 C193.63125007 175.06393821 192.55052152 174.0587285 191.46921253 173.05414391 C190.68852406 172.32614586 190.68852406 172.32614586 189.89206409 171.58344078 C185.78271951 167.77423262 181.5098607 164.14965608 177.24655628 160.51508141 C170.70186751 154.93189184 164.23965768 149.29049543 157.89499378 143.47992516 C153.42433503 139.39677134 148.84998114 135.43884512 144.24265003 131.51117516 C137.69888861 125.92970504 131.23831036 120.28926153 124.89499378 114.47992516 C120.42433503 110.39677134 115.84998114 106.43884512 111.24265003 102.51117516 C104.69888861 96.92970504 98.23831036 91.28926153 91.89499378 85.47992516 C87.42433503 81.39677134 82.84998114 77.43884512 78.24265003 73.51117516 C71.69888861 67.92970504 65.23831036 62.28926153 58.89499378 56.47992516 C54.42433503 52.39677134 49.84998114 48.43884512 45.24265003 44.51117516 C44.0446186 43.48917426 42.84670517 42.46703502 41.64890003 41.44476891 C41.0494054 40.93341393 40.44991077 40.42205894 39.83224964 39.89520836 C34.9803131 35.7400473 30.25404001 31.46434771 25.57077503 27.12055016 C20.88041774 22.97740122 15.44876543 23.99597214 9.46140003 23.94476891 C7.81204456 23.90126305 7.81204456 23.90126305 6.12936878 23.85687828 C-6.39042329 23.7603437 -14.80566938 27.68486352 -23.07375622 36.98383141 Z M59.46140003 24.25726891 C64.69808167 30.38926782 64.69808167 30.38926782 70.52390003 35.44476891 C74.90097801 38.93331198 79.05931245 42.56717815 83.14890003 46.38226891 C83.70593616 46.90135826 84.2629723 47.42044762 84.83688831 47.95526695 C85.90642761 48.95204956 86.97592817 49.94887374 88.04538441 50.94574547 C92.15045379 54.74788904 96.41521888 58.36606787 100.67233753 61.99555016 C101.87302044 63.02009983 103.07353624 64.04484537 104.27390003 65.06976891 C104.88008167 65.5870858 105.48626331 66.10440269 106.11081409 66.63739586 C109.85210824 69.8422912 113.52255386 73.10936168 117.14890003 76.44476891 C120.601557 79.61557632 124.1167097 82.63761922 127.77390003 85.56976891 C132.83056718 89.64539934 137.54488306 94.0108985 142.26926136 98.45966148 C145.73184116 101.70260532 149.25417724 104.79149067 152.96140003 107.75726891 C157.31843423 111.24289626 161.40261536 114.93520558 165.46140003 118.75726891 C170.36834 123.37771095 175.39965614 127.71959739 180.66452503 131.93305016 C184.53494601 135.14939161 188.20606513 138.56328294 191.87180042 142.00946617 C195.30188569 145.22730307 198.82259272 148.27660163 202.46140003 151.25726891 C205.9091909 149.757205 208.28500536 147.75317628 211.02390003 145.19476891 C214.49938542 142.00341079 218.02551077 138.95271365 221.71140003 136.00726891 C226.7856301 131.9077497 231.52370334 127.52356028 236.26901722 123.05512047 C240.56230906 119.03412051 245.02368071 115.30744436 249.61765003 111.63226891 C253.01775189 108.7926234 256.23725103 105.7933752 259.46140003 102.75726891 C264.37100301 98.13431932 269.40618547 93.79125712 274.67233753 89.57367516 C279.09874166 85.89740394 283.26941115 81.95300518 287.47702503 78.03070641 C292.08288229 73.73745091 296.84240073 69.63397469 301.63718128 65.55414391 C302.82885689 64.53883497 304.02025413 63.52319923 305.21140003 62.50726891 C305.81500355 61.99253014 306.41860706 61.47779137 307.04050159 60.94745445 C310.98606079 57.56637326 314.84246384 54.10628054 318.64890003 50.56976891 C322.31685158 47.16260654 326.06137593 43.89849004 329.96140003 40.75726891 C334.14853525 37.38311031 338.18013519 33.8827638 342.14890003 30.25726891 C342.67870472 29.77580406 343.20850941 29.29433922 343.75436878 28.79828453 C345.01098284 27.6402612 346.23929155 26.45165067 347.46140003 25.25726891 C347.46140003 24.92726891 347.46140003 24.59726891 347.46140003 24.25726891 C252.42140003 24.25726891 157.38140003 24.25726891 59.46140003 24.25726891 Z M-28.53859997 83.25726891 C-28.63020556 116.71906881 -28.70066408 150.18083746 -28.74286129 183.64273497 C-28.74786396 187.59546393 -28.75304127 191.54819265 -28.75832653 195.50092125 C-28.75937577 196.28782044 -28.76042501 197.07471964 -28.76150605 197.88546427 C-28.77889939 210.61780418 -28.81043116 223.35007167 -28.84721115 236.08236866 C-28.88465041 249.15213585 -28.90684212 262.22186518 -28.91495395 275.29168379 C-28.92043555 283.35297866 -28.93773293 291.41406879 -28.97026584 299.47530062 C-28.99395919 305.66230946 -28.99641228 311.84916301 -28.99103069 318.03621101 C-28.99212999 320.57018861 -29.0000713 323.10417405 -29.01542187 325.63810539 C-29.03538103 329.10310737 -29.0305166 332.56723988 -29.01961803 336.0322628 C-29.0312694 337.03034474 -29.04292077 338.02842667 -29.0549252 339.05675352 C-28.97344254 348.66917071 -26.07961506 356.49149809 -19.46438122 363.50336266 C-12.51346428 369.83391379 -5.37737912 372.52797914 4.04733753 372.45258141 C4.74912128 372.44975151 5.45090504 372.44692162 6.17395496 372.44400597 C8.39495031 372.43289403 10.61552849 372.40780724 12.83640003 372.38226891 C14.35071709 372.37222744 15.86504052 372.36310364 17.37936878 372.35492516 C21.07351262 372.33298445 24.76741554 372.29851766 28.46140003 372.25726891 C28.64396197 341.94637804 28.78550863 311.63554405 28.86992267 281.32422894 C28.87992813 277.7444536 28.89028273 274.16467934 28.90085316 270.58490562 C28.90295164 269.87224718 28.90505012 269.15958873 28.9072122 268.42533457 C28.94200817 256.891053 29.00507631 245.35709091 29.0786224 233.82299876 C29.15347609 221.98497016 29.1978789 210.1471087 29.21410799 198.30885315 C29.22409325 191.66060876 29.24907156 185.01295844 29.30724049 178.36493492 C29.36155206 172.10704538 29.37829008 165.85017819 29.36626148 159.59207535 C29.36846189 157.29587243 29.38436965 154.99963525 29.41504383 152.70363617 C29.45491273 149.56539479 29.44526325 146.43100156 29.42343616 143.2926693 C29.4467389 142.38603539 29.47004163 141.47940147 29.4940505 140.54529381 C29.39466381 135.25124728 28.40392927 132.65312021 24.64346027 128.84490013 C23.27045011 127.62495872 21.87656224 126.42805065 20.46140003 125.25726891 C19.16838352 124.11295903 17.87651292 122.96735138 16.58640003 121.81976891 C15.92897816 121.25387047 15.27155628 120.68797203 14.59421253 120.10492516 C12.18763182 118.02010341 9.82375059 115.89205358 7.46140003 113.75726891 C4.48077283 111.0674346 1.4889477 108.39416527 -1.53859997 105.75726891 C-4.56614764 103.12037255 -7.55797276 100.44710321 -10.53859997 97.75726891 C-12.20513934 96.25712748 -13.87180154 94.7571225 -15.53859997 93.25726891 C-16.27723278 92.58953453 -17.01586559 91.92180016 -17.77688122 91.23383141 C-18.46137341 90.62281578 -19.14586559 90.01180016 -19.85109997 89.38226891 C-20.44535778 88.84859703 -21.03961559 88.31492516 -21.65188122 87.76508141 C-23.82861469 86.02549731 -26.14115677 84.67209702 -28.53859997 83.25726891 Z M429.89890003 87.31976891 C426.77548024 90.15964421 423.64764784 92.98803512 420.46140003 95.75726891 C417.43385236 98.39416527 414.44202724 101.0674346 411.46140003 103.75726891 C408.48077283 106.44710321 405.4889477 109.12037255 402.46140003 111.75726891 C398.72012611 115.01773654 395.02839636 118.33095515 391.34421253 121.65570641 C388.46140003 124.25726891 388.46140003 124.25726891 386.03228664 125.6728487 C382.18596465 128.27323549 379.11320599 130.78383688 377.88645983 135.43901563 C376.94394568 142.32545158 377.21019095 149.28653875 377.32614613 156.21845055 C377.32896858 158.57442669 377.32738019 160.93041163 377.32172108 163.28638268 C377.31885558 169.6686518 377.37758448 176.04903587 377.44746065 182.43086743 C377.50369354 188.42857603 377.51369941 194.42628843 377.52397938 200.42421048 C377.5458308 212.29917495 377.61228344 224.17344997 377.7070055 236.04804039 C377.79888729 247.57860442 377.86962601 259.10898075 377.91208363 270.63983727 C377.91471086 271.3513647 377.9173381 272.06289213 377.92004494 272.795981 C377.93309593 276.36573714 377.94573287 279.93549461 377.95816398 283.50525296 C378.06172222 313.08971516 378.2385038 342.67345917 378.46140003 372.25726891 C382.83552671 372.35718746 387.20902441 372.42922375 391.58395863 372.47699547 C393.06780051 372.49693871 394.55156559 372.5241038 396.0351305 372.55902672 C408.20705238 372.83808629 417.63865114 371.66994039 426.77780628 362.97211266 C434.58576655 355.01922505 435.91705539 347.02233918 435.82216358 336.15251732 C435.82600849 334.52389585 435.82600849 334.52389585 435.82993108 332.86237293 C435.83485343 329.24181702 435.81840116 325.62168258 435.8019762 322.00116539 C435.8011296 319.39888583 435.80160572 316.79660555 435.80330372 314.1943264 C435.80487265 308.60083188 435.79550341 303.00744277 435.7785902 297.41397476 C435.75415294 289.32689309 435.74639011 281.23986211 435.74262623 273.15274752 C435.73606914 260.03025118 435.71612818 246.90781096 435.68771839 233.78534508 C435.66015857 221.04218386 435.63893441 208.29903791 435.62619495 195.55585289 C435.6250127 194.37654941 435.6250127 194.37654941 435.62380656 193.17342161 C435.61989129 189.22906261 435.61610021 185.2847035 435.61237085 181.34034431 C435.58129807 148.645945 435.52848257 115.95161448 435.46140003 83.25726891 C433.36428261 83.25726891 431.31746089 86.02248959 429.89890003 87.31976891 Z M52.46140003 155.25726891 C52.46140003 226.86726891 52.46140003 298.47726891 52.46140003 372.25726891 C152.12140003 372.25726891 251.78140003 372.25726891 354.46140003 372.25726891 C354.46140003 300.64726891 354.46140003 229.03726891 354.46140003 155.25726891 C349.31689971 159.11564415 344.58220008 162.81367687 339.96140003 167.19476891 C338.83060686 168.25282764 337.69909952 169.31012365 336.56686878 170.36664391 C336.03110218 170.86744469 335.49533558 171.36824547 334.94333363 171.88422203 C332.48385614 174.16298667 329.95360941 176.35664142 327.41843128 178.55023766 C325.07580853 180.59360321 322.76866581 182.6740775 320.46140003 184.75726891 C316.84463658 188.02117739 313.19750395 191.2451784 309.52390003 194.44476891 C307.15175575 196.52938055 304.80583938 198.64155535 302.46140003 200.75726891 C298.84463658 204.02117739 295.19750395 207.2451784 291.52390003 210.44476891 C289.15175575 212.52938055 286.80583938 214.64155535 284.46140003 216.75726891 C281.48077283 219.44710321 278.4889477 222.12037255 275.46140003 224.75726891 C270.74438719 228.86807929 266.10501114 233.06394736 261.46140003 237.25726891 C256.18154427 242.02513865 250.88848197 246.77239109 245.52390003 251.44476891 C243.15175575 253.52938055 240.80583938 255.64155535 238.46140003 257.75726891 C234.84463658 261.02117739 231.19750395 264.2451784 227.52390003 267.44476891 C225.15175575 269.52938055 222.80583938 271.64155535 220.46140003 273.75726891 C219.2026305 274.88842125 219.2026305 274.88842125 217.91843128 276.04242516 C216.34652266 277.45939207 214.78078042 278.8832489 213.22311878 280.31586266 C206.95551103 285.99330019 206.95551103 285.99330019 202.46140003 287.25726891 C198.09291249 283.46229789 193.75734748 279.63426173 189.46140003 275.75726891 C186.48077283 273.0674346 183.4889477 270.39416527 180.46140003 267.75726891 C176.56627193 264.36473797 172.7335724 260.9053269 168.89890003 257.44476891 C166.76722523 255.53172741 164.62120893 253.63839278 162.46140003 251.75726891 C156.87160014 246.88583687 151.38605105 241.8983174 145.88327503 236.92914391 C141.46018602 232.94022314 137.01524999 228.98158983 132.52390003 225.06976891 C129.28764926 222.22579096 126.09731335 219.3311419 122.89890003 216.44476891 C120.76722523 214.53172741 118.62120893 212.63839278 116.46140003 210.75726891 C112.56627193 207.36473797 108.7335724 203.9053269 104.89890003 200.44476891 C102.76722523 198.53172741 100.62120893 196.63839278 98.46140003 194.75726891 C94.56627193 191.36473797 90.7335724 187.9053269 86.89890003 184.44476891 C84.76722523 182.53172741 82.62120893 180.63839278 80.46140003 178.75726891 C77.43385236 176.12037255 74.44202724 173.44710321 71.46140003 170.75726891 C69.79498756 169.25698651 68.12833064 167.75697558 66.46140003 166.25726891 C65.73436878 165.60113609 65.00733753 164.94500328 64.25827503 164.26898766 C63.24507191 163.36599937 63.24507191 163.36599937 62.21140003 162.44476891 C61.62874378 161.92269859 61.04608753 161.40062828 60.44577503 160.86273766 C57.91770174 158.81738702 55.1671137 157.06107802 52.46140003 155.25726891 Z " fill="#000000" transform="translate(52.53859996795654,57.74273109436035)"/>
</svg>
