<?xml version="1.0" encoding="UTF-8"?>
<svg version="1.1" xmlns="http://www.w3.org/2000/svg" width="512" height="512">
<path d="M0 0 C1.00515608 -0.00445784 2.01031217 -0.00891569 3.04592752 -0.01350862 C4.14308887 -0.01332426 5.24025022 -0.01313989 6.37065887 -0.01294994 C8.12740315 -0.01846498 8.12740315 -0.01846498 9.9196372 -0.02409142 C13.16690209 -0.03319962 16.41413726 -0.03782387 19.66141272 -0.04048073 C23.16536331 -0.04439185 26.66929937 -0.05396967 30.17324066 -0.0626936 C38.63402587 -0.08243613 47.09481223 -0.09252181 55.55561471 -0.10142139 C59.54370212 -0.10580827 63.53178821 -0.11117407 67.51987457 -0.11641026 C80.78390731 -0.13342099 94.04793923 -0.14791375 107.3119812 -0.155159 C110.75239818 -0.15706877 114.19281516 -0.15898912 117.63323212 -0.16094494 C118.91582138 -0.16167055 118.91582138 -0.16167055 120.22432154 -0.16241082 C134.06656243 -0.17070588 147.90871676 -0.19603463 161.75091988 -0.22852562 C175.97460876 -0.26163878 190.19825372 -0.27961164 204.42198133 -0.28280324 C212.4031025 -0.28496449 220.38409747 -0.29365653 228.36518097 -0.31926441 C235.16423568 -0.34102974 241.96313353 -0.34899332 248.76221913 -0.33929763 C252.227193 -0.33476959 255.69184362 -0.33655079 259.15677261 -0.35605907 C262.92478951 -0.37381539 266.691996 -0.36665215 270.46001434 -0.35352612 C271.53932992 -0.36449536 272.61864549 -0.37546461 273.73066759 -0.38676625 C284.76992381 -0.29444169 294.98779738 2.5558267 303.92327118 9.13422108 C304.76889618 9.69109608 305.61452118 10.24797108 306.48577118 10.82172108 C315.92975986 19.78140265 319.93159578 30.79777127 320.38868713 43.58187675 C320.48139847 48.45549201 320.47646347 53.32636603 320.45452118 58.20062733 C320.45722174 60.32806544 320.46110884 62.45550235 320.46611786 64.58293629 C320.47198504 69.02161995 320.46353916 73.45997964 320.44475555 77.89862537 C320.42195401 83.55951695 320.4351149 89.21965023 320.45904541 94.88051414 C320.47356685 99.26714663 320.46886862 103.65360219 320.45853424 108.04024029 C320.4558852 110.12642922 320.45907178 112.21263476 320.46845245 114.29880428 C320.52686202 130.93308066 319.11550105 144.19680459 307.26702118 156.91156483 C297.98924045 165.51101725 286.86287194 168.43649222 274.56926727 168.42474842 C273.55215164 168.43146564 272.53503601 168.43818287 271.48709869 168.44510365 C268.14025177 168.46403226 264.79360572 168.46800454 261.44670868 168.47015858 C259.1145647 168.47658748 256.78242153 168.48331591 254.45027924 168.4903307 C249.56983824 168.50228872 244.68946797 168.50601277 239.80901337 168.50482655 C233.55320355 168.50462285 227.29784543 168.53198428 221.04214287 168.56637096 C216.22947347 168.58859084 211.4169139 168.59266568 206.60419846 168.59160709 C204.29729523 168.59396818 201.99038921 168.60282009 199.68353653 168.61827183 C196.46152842 168.63784215 193.24050967 168.63212968 190.01848602 168.62006092 C189.06563217 168.63129993 188.11277832 168.64253895 187.13105011 168.65411854 C182.91508438 168.61393915 180.53889957 168.50139128 176.85506439 166.30429554 C174.28144014 163.41322199 173.9496776 161.12284437 173.36077118 157.32172108 C171.79817347 148.99074436 169.49864062 144.1362793 163.09514618 138.49359608 C155.33929048 133.63921157 147.98143234 133.64494828 139.04827118 133.69672108 C137.83268524 133.67674061 136.6170993 133.65676014 135.36467743 133.6361742 C126.77940197 133.64080488 119.41703443 134.590359 112.52092743 140.02875233 C107.0543784 146.85846116 104.70280963 152.88891741 103.74358368 161.58343983 C102.57529589 165.21625853 101.18822721 166.14541801 97.92327118 168.13422108 C94.58495969 168.72273112 91.29017821 168.68078346 87.90740204 168.6517992 C86.39903275 168.66231312 86.39903275 168.66231312 84.86019135 168.67303944 C81.5358847 168.69064151 78.21243028 168.6789821 74.88811493 168.66547108 C72.56988106 168.66816682 70.25164828 168.67204992 67.93341827 168.67706776 C63.07030746 168.68296707 58.20749042 168.67439106 53.34441376 168.65570545 C47.13626444 168.63300507 40.92881027 168.64598008 34.72068691 168.66999531 C29.9291444 168.68451753 25.13776386 168.67981636 20.3462162 168.66948414 C18.0590691 168.66682995 15.77190693 168.67004018 13.48477745 168.67940235 C-3.92688775 168.73499774 -17.48300296 167.93804474 -30.85407257 155.47797108 C-39.15646267 146.52068506 -42.379804 135.56721562 -42.36725616 123.6415453 C-42.37397339 122.71530857 -42.38069061 121.78907185 -42.38761139 120.83476734 C-42.40653854 117.78609246 -42.41051341 114.73763849 -42.41266632 111.68890858 C-42.41909959 109.55529155 -42.42582834 107.4216754 -42.43283844 105.28806019 C-42.44479924 100.8178144 -42.44852066 96.3476458 -42.44733429 91.87738514 C-42.44713156 86.178361 -42.47439181 80.47983809 -42.50887871 74.78093243 C-42.53123558 70.37283573 -42.53516909 65.9648578 -42.53411484 61.55671024 C-42.53645919 59.45737582 -42.5452162 57.35803754 -42.56077957 55.2587595 C-42.67267323 38.60201984 -41.72390504 25.13024307 -30.07672882 12.13422108 C-22.26613048 4.47007145 -10.88927166 0.02249169 0 0 Z M-22.07672882 27.13422108 C-28.02764192 37.0341272 -28.25826844 46.48218963 -28.26422882 57.75922108 C-28.27647491 58.98640858 -28.28872101 60.21359608 -28.3013382 61.47797108 C-28.30327179 62.6561742 -28.30520538 63.83437733 -28.30719757 65.04828358 C-28.31130646 66.12030018 -28.31541534 67.19231678 -28.31964874 68.29681873 C-28.07632447 71.13894409 -27.6120194 72.75675488 -26.07672882 75.13422108 C-23.67631319 76.87245309 -22.48399469 77.16402102 -19.51422882 76.94672108 C-16.88919578 76.07171006 -15.78741545 75.27257937 -14.07672882 73.13422108 C-12.64769456 70.27615255 -12.91218999 67.77906397 -12.86579132 64.58734608 C-12.83770717 63.25400079 -12.80904261 61.92066763 -12.77985382 60.58734608 C-12.73872341 58.48969534 -12.70183034 56.39226708 -12.67536163 54.29437733 C-12.64757018 52.26655934 -12.6016883 50.23976353 -12.55329132 48.21234608 C-12.53347198 46.99966053 -12.51365265 45.78697498 -12.49323273 44.53754139 C-11.89428275 39.64342491 -10.27626762 36.33582094 -6.80329132 32.85687733 C-3.66183015 30.87208596 -1.09635339 30.23780764 2.54827118 29.57172108 C8.02433366 28.71397202 8.02433366 28.71397202 11.92327118 25.13422108 C12.59003996 21.67672159 12.59003996 21.67672159 11.92327118 18.13422108 C9.38359675 15.13278766 7.73255646 14.26634929 3.86077118 13.63422108 C-6.87950067 14.99806512 -15.07516022 18.69643328 -22.07672882 27.13422108 Z M242.92327118 28.13422108 C241.13412261 31.77228433 240.66778062 34.73335504 240.64861298 38.76312733 C240.63908096 39.86777332 240.62954895 40.97241932 240.61972809 42.11053944 C240.6206395 43.29397938 240.6215509 44.47741932 240.62248993 45.69672108 C240.6182048 46.92076649 240.61391968 48.1448119 240.6095047 49.40594959 C240.60376692 51.9914739 240.60325706 54.57701436 240.60759735 57.16254139 C240.61075944 61.11952658 240.58728252 65.07576567 240.56194305 69.03265858 C240.55967025 71.54567847 240.55896648 74.05870037 240.55998993 76.57172108 C240.55078018 77.75516102 240.54157043 78.93860096 240.5320816 80.15790272 C240.53831039 81.26254871 240.54453918 82.36719471 240.55095673 83.50531483 C240.5503273 84.47396473 240.54969788 85.44261463 240.54904938 86.44061756 C241.03382336 89.92996239 242.41607581 92.62702571 244.92327118 95.13422108 C249.11639891 95.5743408 249.11639891 95.5743408 252.73577118 93.75922108 C254.84026042 90.8793937 255.04318875 89.08119759 255.02092743 85.56390858 C255.01770477 84.66801014 255.01448212 83.7721117 255.0111618 82.84906483 C254.99859344 81.44334217 254.99859344 81.44334217 254.98577118 80.00922108 C254.98125946 79.06433826 254.97674774 78.11945545 254.9720993 77.14593983 C254.96029475 74.80863721 254.94382877 72.47146046 254.92327118 70.13422108 C257.92341174 69.91631203 259.2380513 69.9006962 261.92327118 71.13422108 C265.01724552 74.65780656 267.33569624 78.61737923 269.73577118 82.63422108 C271.05115274 84.77187497 272.36998471 86.90741081 273.69280243 89.04047108 C274.26619354 89.99244373 274.83958466 90.94441639 275.43035126 91.9252367 C276.73450452 94.24427041 276.73450452 94.24427041 278.92327118 95.13422108 C283.05391744 95.51037234 283.05391744 95.51037234 286.79827118 94.00922108 C288.52151382 91.13715001 288.32617825 89.47910995 287.92327118 86.13422108 C286.35891521 82.99002046 284.41499438 80.14648567 282.42327118 77.25922108 C281.89862274 76.47547108 281.3739743 75.69172108 280.83342743 74.88422108 C279.54207707 72.95893508 278.23869087 71.04310623 276.92327118 69.13422108 C277.70315399 68.36207264 278.4830368 67.5899242 279.28655243 66.79437733 C284.8163629 61.21541298 288.19238031 56.9941971 288.42327118 49.00922108 C288.31362684 42.04680549 286.38804145 37.43677432 281.92327118 32.13422108 C274.66959687 25.96088124 266.82754407 25.8119207 257.73577118 25.88422108 C256.75157196 25.8764867 255.76737274 25.86875233 254.7533493 25.86078358 C253.80524384 25.8633617 252.85713837 25.86593983 251.88030243 25.86859608 C251.02412323 25.87085194 250.16794403 25.8731078 249.28582001 25.87543201 C246.62304117 26.1671077 245.10790836 26.57456349 242.92327118 28.13422108 Z M171.92327118 29.13422108 C170.65825497 30.19320887 170.65825497 30.19320887 170.62786102 32.60297108 C171.02984246 37.40814421 172.74585326 41.23778416 174.64983368 45.63422108 C175.03513245 46.54695789 175.42043121 47.45969471 175.8174057 48.40009022 C177.05103658 51.31582635 178.29939014 54.22498912 179.54827118 57.13422108 C180.36565325 59.05958835 181.18206908 60.98536613 181.99748993 62.91156483 C183.5729901 66.62923224 185.15846977 70.34237753 186.75237274 74.05218983 C188.10819733 77.21149041 189.44144713 80.37781165 190.74260712 83.56000233 C191.14870712 84.5423888 191.14870712 84.5423888 191.56301117 85.54462147 C192.26383241 87.24388958 192.95600559 88.94671749 193.64739227 90.64984608 C194.81049886 93.41057528 194.81049886 93.41057528 197.92327118 95.13422108 C201.45789705 95.12932957 201.45789705 95.12932957 204.92327118 94.13422108 C207.27263896 91.5222231 208.63856478 88.80175513 209.96038055 85.56854725 C210.51610748 84.22145931 210.51610748 84.22145931 211.08306122 82.84715748 C211.47376801 81.88356815 211.86447479 80.91997883 212.26702118 79.92718983 C212.67738617 78.92843327 213.08775116 77.9296767 213.51055145 76.90065479 C214.82023129 73.70987459 216.12192659 70.51590864 217.42327118 67.32172108 C218.72641871 64.13900604 220.03116429 60.95694933 221.33599091 57.77492237 C222.14652659 55.79655133 222.95575447 53.81764383 223.76348114 51.83812428 C224.13396576 50.93060917 224.50445038 50.02309406 224.8861618 49.0880785 C225.23380585 48.23515217 225.58144989 47.38222584 225.9396286 46.50345325 C226.81791741 44.38797946 227.73711036 42.29690452 228.67131805 40.20575428 C230.14784209 36.58326034 230.37057101 34.01081957 229.92327118 30.13422108 C228.46468253 27.94633811 227.3874681 27.3288843 224.98577118 26.32172108 C222.16278326 26.06508581 221.25674234 26.4786298 218.92327118 28.13422108 C217.54055848 30.67623875 216.39770024 33.09729444 215.29827118 35.75922108 C214.80037079 36.92106922 214.80037079 36.92106922 214.2924118 38.10638905 C213.15412212 40.77614828 212.03798392 43.45453551 210.92327118 46.13422108 C210.0094628 48.31141109 209.09539013 50.48849019 208.18108368 52.66547108 C205.74485043 58.48141026 203.32792552 64.30516084 200.92327118 70.13422108 C196.33263976 61.43524248 192.66359646 52.39179044 189.00188446 43.2767992 C188.2280457 41.35482182 187.4471181 39.4358409 186.66545868 37.51703358 C186.21025848 36.3866869 185.75505829 35.25634022 185.28606415 34.09174061 C183.74475944 30.7468167 182.41912982 27.8821504 179.04827118 26.19672108 C175.99741648 26.10699006 174.37264764 27.41303762 171.92327118 29.13422108 Z M-26.07672882 89.13422108 C-28.52107526 92.77436289 -28.40915389 96.27591008 -28.45172882 100.57172108 C-28.4800882 101.86980701 -28.50844757 103.16789295 -28.53766632 104.50531483 C-28.01163149 108.64672463 -27.02934093 110.24650154 -24.07672882 113.13422108 C-21.22689792 114.20290766 -19.78829605 114.35785649 -16.88922882 113.44672108 C-14.61667546 111.80107899 -14.07806269 110.76703858 -13.07672882 108.13422108 C-12.72137866 104.56847326 -12.72137866 104.56847326 -12.76422882 100.69672108 C-12.74747101 99.39863514 -12.7307132 98.1005492 -12.71344757 96.76312733 C-13.09234864 92.97819079 -13.72149279 91.0865592 -16.07672882 88.13422108 C-20.00434876 86.88072535 -22.70471398 86.60520995 -26.07672882 89.13422108 Z " fill="#000000" transform="translate(117.07672882080078,95.86577892303467)"/>
<path d="M0 0 C1.28455078 -0.02900391 2.56910156 -0.05800781 3.89257812 -0.08789062 C5.13072266 -0.09626953 6.36886719 -0.10464844 7.64453125 -0.11328125 C8.77866455 -0.12786377 9.91279785 -0.14244629 11.08129883 -0.1574707 C14.86610507 0.41517349 16.48879796 1.64848643 19.1875 4.3125 C20.43609148 7.07254433 21.08847733 9.64938191 21.53515625 12.640625 C22.80289317 20.66552279 25.79997451 25.57364961 32.125 30.6875 C38.62777979 34.13795458 44.47928321 34.61326938 51.70288086 34.63134766 C53.09429794 34.64641609 53.09429794 34.64641609 54.51382446 34.66178894 C57.55999163 34.69251885 60.60607132 34.70962772 63.65234375 34.7265625 C65.77227018 34.74528234 67.89218921 34.76485636 70.01210022 34.7852478 C75.57687009 34.8364887 81.1416641 34.87615749 86.70654297 34.91339111 C92.39101086 34.95348119 98.07537904 35.0045507 103.75976562 35.0546875 C114.90227362 35.15135158 126.04483803 35.23578681 137.1875 35.3125 C136.72519406 36.89142769 136.25982985 38.4694601 135.79321289 40.04711914 C135.53439835 40.92598282 135.2755838 41.8048465 135.00892639 42.71034241 C133.808033 46.51459547 132.27147261 50.12050377 130.625 53.75 C130.27985352 54.51368896 129.93470703 55.27737793 129.57910156 56.06420898 C111.88849759 94.65724436 86.38081313 126.39677272 47.1875 144.3125 C46.31996094 144.72113281 45.45242188 145.12976563 44.55859375 145.55078125 C16.8082887 157.71208245 -16.8186907 155.85073144 -44.63085938 145.19677734 C-83.93917368 129.26406535 -109.74010512 96.67954729 -127.6875 59.4375 C-128.13996094 58.4990625 -128.59242188 57.560625 -129.05859375 56.59375 C-136.8125 40.16009795 -136.8125 40.16009795 -136.8125 35.3125 C-135.64675949 35.30885437 -134.48101898 35.30520874 -133.279953 35.30145264 C-122.26082194 35.26441247 -111.24196801 35.20654136 -100.22304821 35.12859726 C-94.55892514 35.08919194 -88.89495593 35.05696935 -83.23071289 35.04150391 C-77.75808463 35.02629167 -72.28587955 34.99176494 -66.81344032 34.94419098 C-64.73204553 34.92942424 -62.6505903 34.92146171 -60.5691433 34.92061615 C-43.4784272 35.49987972 -43.4784272 35.49987972 -28.6068573 28.32855225 C-23.86530389 23.34008474 -21.87204028 18.60222122 -20.9375 11.8125 C-20.17301503 7.31053297 -19.23983607 4.52562756 -15.8125 1.3125 C-11.25904686 -0.96422657 -4.9989445 0.03728701 0 0 Z " fill="#000000" transform="translate(255.8125,243.6875)"/>
<path d="M0 0 C0.6084375 0.3403125 1.216875 0.680625 1.84375 1.03125 C38.09202907 21.07441607 74.52207034 31.37383495 115.7097168 20.35717773 C129.46267705 16.38601645 141.89275122 10.41711906 153.98828125 2.8203125 C157 1 157 1 160 0 C160.13462646 0.92558716 160.13462646 0.92558716 160.27197266 1.86987305 C166.0690332 40.92964398 179.03012314 74.67887734 206.75 103.34375 C210.09216983 107.28936716 211.01947639 109.77298758 210.9375 114.9375 C210.23065992 119.48886054 208.21711484 121.78288516 205 125 C202.71994648 126.14002676 201.4619326 126.1290714 198.92879105 126.13701439 C198.07159383 126.14208893 197.21439662 126.14716347 196.33122373 126.15239179 C195.38396885 126.15288955 194.43671397 126.15338731 193.46075439 126.15390015 C192.45872506 126.1582824 191.45669572 126.16266465 190.42430186 126.1671797 C187.04491034 126.18060335 183.66554491 126.18675455 180.28613281 126.19287109 C177.8719572 126.20076921 175.45778278 126.20903798 173.04360962 126.21765137 C165.78295708 126.24163695 158.52230276 126.25680393 151.26162446 126.26971143 C149.21128331 126.27342273 147.16094285 126.27739602 145.11060238 126.2814641 C132.38152808 126.30670019 119.65245272 126.32875592 106.92335892 126.34119225 C103.97429653 126.344122 101.02523418 126.34708366 98.07617188 126.35009766 C97.34318551 126.35084371 96.61019914 126.35158976 95.85500106 126.35235842 C83.98009928 126.36501301 72.10534719 126.39823682 60.23051539 126.43989949 C48.04210834 126.48231218 35.85377793 126.50588651 23.66529727 126.51111281 C16.82057829 126.51452773 9.97609323 126.52629201 3.13144684 126.55921555 C-3.30684058 126.59013345 -9.74483175 126.59563659 -16.18318558 126.58383179 C-18.5479166 126.58361038 -20.91266613 126.59197053 -23.27733231 126.60948563 C-26.50299026 126.63207992 -29.72715553 126.62392638 -32.95281982 126.60800171 C-34.36031781 126.62882484 -34.36031781 126.62882484 -35.7962501 126.65006864 C-40.1508084 126.59700889 -43.07767274 126.39899101 -46.53810501 123.60653114 C-50.23594084 119.69144772 -50.97423817 117.57147137 -51.0625 112.1875 C-50.33554993 107.82579961 -48.27644847 105.58011328 -45.28515625 102.44140625 C-18.47145388 73.79428833 -4.95803413 38.55426536 0 0 Z " fill="#000000" transform="translate(176,386)"/>
<path d="M0 0 C1.21864746 0.27408691 1.21864746 0.27408691 2.46191406 0.55371094 C37.83088755 8.71578174 68.16417038 29.61501778 87.7265625 60.26171875 C96 73.62570489 96 73.62570489 96 79 C6.24 79 -83.52 79 -176 79 C-175.08014852 74.40074259 -173.68830437 70.98870064 -171.5 66.9375 C-170.96596558 65.94786255 -170.96596558 65.94786255 -170.42114258 64.93823242 C-153.50806415 34.38117572 -123.7467595 12.21027252 -90.4375 2.5625 C-86.97320783 1.63670597 -83.49559181 0.79862092 -80 0 C-79.26716797 -0.17644043 -78.53433594 -0.35288086 -77.77929688 -0.53466797 C-53.95303502 -6.02341185 -23.74348395 -5.69214648 0 0 Z " fill="#000000" transform="translate(296,3)"/>
<path d="M0 0 C4.95 0 9.9 0 15 0 C20.62613632 5.62613632 20.62613632 5.62613632 20.63110352 10.62890625 C20.64363663 11.73355225 20.65616974 12.83819824 20.66908264 13.97631836 C20.65582443 15.1597583 20.64256622 16.34319824 20.62890625 17.5625 C20.63131821 18.78654541 20.63373016 20.01059082 20.63621521 21.27172852 C20.63523658 23.8572921 20.62183951 26.44287659 20.59692383 29.02832031 C20.56262351 32.9857502 20.57626506 36.94094662 20.59570312 40.8984375 C20.58880459 43.41146784 20.57913214 45.92449241 20.56640625 48.4375 C20.57136612 49.62093994 20.57632599 50.80437988 20.58143616 52.02368164 C20.56559982 53.12832764 20.54976349 54.23297363 20.53344727 55.37109375 C20.52724869 56.33974365 20.52105011 57.30839355 20.5146637 58.30639648 C20 61 20 61 16 66 C10.72 66 5.44 66 0 66 C0 44.22 0 22.44 0 0 Z " fill="#000000" transform="translate(447,147)"/>
<path d="M0 0 C4.95 0 9.9 0 15 0 C15 21.78 15 43.56 15 66 C9.72 66 4.44 66 -1 66 C-5.5014378 60.37320275 -5.5014378 60.37320275 -5.53344727 55.37109375 C-5.5492836 54.26644775 -5.56511993 53.16180176 -5.58143616 52.02368164 C-5.57647629 50.8402417 -5.57151642 49.65680176 -5.56640625 48.4375 C-5.57260483 47.21345459 -5.57880341 45.98940918 -5.58518982 44.72827148 C-5.59228736 42.14274897 -5.58911526 39.55718075 -5.57641602 36.97167969 C-5.56254947 33.01411965 -5.59662891 29.05892293 -5.63476562 25.1015625 C-5.6357168 22.58854109 -5.6338581 20.07551671 -5.62890625 17.5625 C-5.64216446 16.37906006 -5.65542267 15.19562012 -5.66908264 13.97631836 C-5.65654953 12.87167236 -5.64401642 11.76702637 -5.63110352 10.62890625 C-5.63014175 9.66025635 -5.62917999 8.69160645 -5.62818909 7.69360352 C-5 5 -5 5 0 0 Z " fill="#000000" transform="translate(50,147)"/>
<path d="M0 0 C3.83625 -0.12375 3.83625 -0.12375 7.75 -0.25 C8.54889648 -0.28641602 9.34779297 -0.32283203 10.17089844 -0.36035156 C13.6365625 -0.41447528 15.63156008 -0.26283982 18.48046875 1.76953125 C20.30149911 4.44256039 20.5206507 6.699253 20.62890625 9.90234375 C19.59596128 13.34763226 17.82247235 14.83461116 15 17 C12.11628549 17.37353815 10.01710038 17.48712853 7.1875 17.3125 C4.815625 17.209375 2.44375 17.10625 0 17 C0 11.39 0 5.78 0 0 Z " fill="#000000" transform="translate(372,136)"/>
</svg>
